custom-analysis
version=1
nRows=5
nColumns=98
inDegrees=no

This file contains tibia displacement and acting force.

Units are S.I. units (seconds, meters, Newtons, ...)
Angles are in degrees.

endheader
time	APT	SIT	knee_angle	aACL_R_force	pACL_R_force	aPCL_R_force	pPCL_R_force	aMCL_R_force	mMCL_R_force	pMCL_R_force	aLCL_R_force	mLCL_R_force	pLCL_R_force	aPCL_L_force	pPCL_L_force	aMCL_L_force	aLCL_L_force	aACL_R_length	pACL_R_length	aPCL_R_length	pPCL_R_length	aMCL_R_length	mMCL_R_length	pMCL_R_length	aLCL_R_length	mLCL_R_length	pLCL_R_length	aPCL_L_length	pPCL_L_length	aMCL_L_length	aLCL_L_length	aACL_R_strain	pACL_R_strain	aPCL_R_strain	pPCL_R_strain	aMCL_R_strain	mMCL_R_strain	pMCL_R_strain	aLCL_R_strain	mLCL_R_strain	pLCL_R_strain	aPCL_L_strain	pPCL_L_strain	aMCL_L_strain	aLCL_L_strain	femur_lat_meniscii_r.femur_lat_r.force.X	femur_lat_meniscii_r.femur_lat_r.force.Y	femur_lat_meniscii_r.femur_lat_r.force.Z	femur_lat_meniscii_r.femur_lat_r.torque.X	femur_lat_meniscii_r.femur_lat_r.torque.Y	femur_lat_meniscii_r.femur_lat_r.torque.Z	femur_lat_meniscii_r.meniscus_lat_r.force.X	femur_lat_meniscii_r.meniscus_lat_r.force.Y	femur_lat_meniscii_r.meniscus_lat_r.force.Z	femur_lat_meniscii_r.meniscus_lat_r.torque.X	femur_lat_meniscii_r.meniscus_lat_r.torque.Y	femur_lat_meniscii_r.meniscus_lat_r.torque.Z	femur_med_meniscii_r.femur_med_r.force.X	femur_med_meniscii_r.femur_med_r.force.Y	femur_med_meniscii_r.femur_med_r.force.Z	femur_med_meniscii_r.femur_med_r.torque.X	femur_med_meniscii_r.femur_med_r.torque.Y	femur_med_meniscii_r.femur_med_r.torque.Z	femur_med_meniscii_r.meniscus_med_r.force.X	femur_med_meniscii_r.meniscus_med_r.force.Y	femur_med_meniscii_r.meniscus_med_r.force.Z	femur_med_meniscii_r.meniscus_med_r.torque.X	femur_med_meniscii_r.meniscus_med_r.torque.Y	femur_med_meniscii_r.meniscus_med_r.torque.Z	femur_med_tibia_r.tibia_upper_r.force.X	femur_med_tibia_r.tibia_upper_r.force.Y	femur_med_tibia_r.tibia_upper_r.force.Z	femur_med_tibia_r.tibia_upper_r.torque.X	femur_med_tibia_r.tibia_upper_r.torque.Y	femur_med_tibia_r.tibia_upper_r.torque.Z	femur_med_tibia_r.femur_med_r.force.X	femur_med_tibia_r.femur_med_r.force.Y	femur_med_tibia_r.femur_med_r.force.Z	femur_med_tibia_r.femur_med_r.torque.X	femur_med_tibia_r.femur_med_r.torque.Y	femur_med_tibia_r.femur_med_r.torque.Z	femur_lat_tibia_r.tibia_upper_r.force.X	femur_lat_tibia_r.tibia_upper_r.force.Y	femur_lat_tibia_r.tibia_upper_r.force.Z	femur_lat_tibia_r.tibia_upper_r.torque.X	femur_lat_tibia_r.tibia_upper_r.torque.Y	femur_lat_tibia_r.tibia_upper_r.torque.Z	femur_lat_tibia_r.femur_lat_r.force.X	femur_lat_tibia_r.femur_lat_r.force.Y	femur_lat_tibia_r.femur_lat_r.force.Z	femur_lat_tibia_r.femur_lat_r.torque.X	femur_lat_tibia_r.femur_lat_r.torque.Y	femur_lat_tibia_r.femur_lat_r.torque.Z	femur_lat_meniscii_force_r	femur_med_meniscii_force_r	femur_lat_tibia_force_r	femur_med_tibia_force_r
      0.14163581	      0.01457567	      0.01297823	     43.24287742	     46.41771264	     -8.51218436	      0.00000000	      0.00000000	      0.00000000	      0.00000000	      0.00000000	      0.00000000	      0.00000000	      0.00000000	      0.00000000	      0.00000000	      0.00000001	      0.00000000	      0.03398811	      0.02619976	      0.03057161	      0.02913398	      0.05841840	      0.05929986	      0.05738088	      0.05147573	      0.04766951	      0.04321600	      0.01525851	      0.01651186	      0.06550154	      0.04489616	      0.09619626	      0.04553549	     -0.01684134	     -0.02522153	     -0.02679787	     -0.00825579	     -0.02293834	     -0.08041621	     -0.15357438	     -0.17436438	      0.00000079	     -0.32847694	      0.00000060	     -0.00000086	    -18.28957241	    193.54147305	     25.81615132	    -15.10682278	     -0.33493891	     -8.57982695	     18.28957241	   -193.54147305	    -25.81615132	      5.59652372	     -0.11049065	      5.18155857	     20.23063344	     40.20505636	      1.05921603	      0.38092711	     -0.37770015	      7.87927281	    -20.23063344	    -40.20505636	     -1.05921603	     -0.69674496	      0.31105471	      0.68241695	    -17.18414929	   -469.25303043	     94.24347717	     -9.21079689	      2.47704845	     10.85589981	     17.18414929	    469.25303043	    -94.24347717	     46.63940902	     -0.73667081	      4.63436418	     22.52489435	   -340.66480298	    -66.77628901	     10.34170326	     -1.02707654	      8.73985096	    -22.52489435	    340.66480298	     66.77628901	    -35.30988103	     -0.18221062	    -10.99280627	    196.11038707	     45.02051782	    347.87778260	    478.93165958
      0.14200282	      0.01456150	      0.01303465	     43.41256732	     45.18615532	     -9.18696513	      0.00000000	      0.00000000	      0.00000000	      0.00000000	      0.00000000	      0.00000000	      0.00000000	      0.00000000	      0.00000000	      0.00000000	      0.00000001	      0.00000000	      0.03396644	      0.02617786	      0.03061165	      0.02916567	      0.05843065	      0.05929954	      0.05736726	      0.05147463	      0.04765736	      0.04319453	      0.01525851	      0.01651186	      0.06550154	      0.04489616	      0.09549717	      0.04466140	     -0.01555374	     -0.02416130	     -0.02659384	     -0.00826116	     -0.02317027	     -0.08043572	     -0.15379002	     -0.17477456	      0.00000079	     -0.32847694	      0.00000060	     -0.00000086	    -17.38361356	    193.57160448	     25.64464664	    -15.03690860	     -0.31222195	     -8.20924516	     17.38361356	   -193.57160448	    -25.64464664	      5.59067880	     -0.13295466	      5.16626861	     19.72226931	     39.06110429	      1.00528001	      0.37916278	     -0.36729650	      7.68058711	    -19.72226931	    -39.06110429	     -1.00528001	     -0.67720773	      0.30300571	      0.66474111	    -17.42865806	   -467.83915885	     94.55203464	     -9.18934485	      2.49227736	     10.83672279	     17.42865806	    467.83915885	    -94.55203464	     46.73007124	     -0.74378135	      4.73459085	     22.42479991	   -337.90903968	    -66.00217872	     10.24206483	     -1.01682844	      8.69842088	    -22.42479991	    337.90903968	     66.00217872	    -34.92199949	     -0.18016128	    -10.95545165	    196.03521108	     43.76926277	    345.02417066	    477.61629362
      0.14255485	      0.01453870	      0.01311933	     43.66774360	     43.24553405	    -10.25881914	      0.00000000	      0.00000000	      0.00000000	      0.00000000	      0.00000000	      0.00000000	      0.00000000	      0.00000000	      0.00000000	      0.00000000	      0.00000001	      0.00000000	      0.03393335	      0.02614470	      0.03067268	      0.02921421	      0.05844929	      0.05929942	      0.05734728	      0.05147326	      0.04763935	      0.04316257	      0.01525851	      0.01651186	      0.06550154	      0.04489616	      0.09443007	      0.04333806	     -0.01359107	     -0.02253741	     -0.02628331	     -0.00826312	     -0.02351035	     -0.08046031	     -0.15410979	     -0.17538510	      0.00000079	     -0.32847694	      0.00000060	     -0.00000086	    -17.22558721	    193.54391322	     25.78000047	    -15.09134693	     -0.30879309	     -8.16214702	     17.22558721	   -193.54391322	    -25.78000047	      5.58960368	     -0.14063790	      5.18741955	     18.81676723	     37.17831916	      0.86792685	      0.39776906	     -0.34912206	      7.32522098	    -18.81676723	    -37.17831916	     -0.86792685	     -0.64772683	      0.28975145	      0.63708204	    -16.67039714	   -465.66315407	     94.68281859	     -9.14499058	      2.49349856	     10.84353144	     16.67039714	    465.66315407	    -94.68281859	     46.72560784	     -0.73659070	      4.41384145	     21.90229193	   -333.51724244	    -65.76513708	     10.12005843	     -1.03265998	      8.61690895	    -21.90229193	    333.51724244	     65.76513708	    -34.72455534	     -0.16411420	    -10.74189576	    196.01167216	     41.67794911	    340.64426408	    475.48387074
      0.14303317	      0.01451742	      0.01319255	     43.88876526	     41.41524467	    -11.27989927	      0.00000000	      0.00000000	      0.00000000	      0.00000000	      0.00000000	      0.00000000	      0.00000000	      0.00000000	      0.00000000	      0.00000000	      0.00000001	      0.00000000	      0.03390414	      0.02611570	      0.03072633	      0.02925709	      0.05846560	      0.05929962	      0.05733043	      0.05147226	      0.04762393	      0.04313514	      0.01525851	      0.01651186	      0.06550154	      0.04489616	      0.09348797	      0.04218089	     -0.01186564	     -0.02110243	     -0.02601165	     -0.00825975	     -0.02379738	     -0.08047820	     -0.15438368	     -0.17590918	      0.00000079	     -0.32847694	      0.00000060	     -0.00000086	    -17.45598897	    194.08348278	     25.79911542	    -15.11038718	     -0.31462531	     -8.27703602	     17.45598897	   -194.08348278	    -25.79911542	      5.59967939	     -0.13577561	      5.23028692	     18.56670276	     35.09813352	      0.88929881	      0.34328533	     -0.34685452	      7.24150703	    -18.56670276	    -35.09813352	     -0.88929881	     -0.60669636	      0.28785867	      0.58636623	    -16.63100335	   -463.45603317	     94.86104638	     -9.10506351	      2.50301254	     10.82001808	     16.63100335	    463.45603317	    -94.86104638	     46.74449913	     -0.73908675	      4.39680364	     21.42807086	   -329.76947585	    -64.50408913	      9.97885718	     -1.02096106	      8.54691011	    -21.42807086	    329.76947585	     64.50408913	    -34.11056467	     -0.15553344	    -10.54870510	    196.56730195	     39.71639813	    336.70142105	    473.35684538
      0.14351149	      0.01449450	      0.01326567	     44.10966742	     39.51601174	    -12.34397304	      0.00000000	      0.00000000	      0.00000000	      0.00000000	      0.00000000	      0.00000000	      0.00000000	      0.00000000	      0.00000000	      0.00000000	      0.00000001	      0.00000000	      0.03387428	      0.02608634	      0.03078073	      0.02930079	      0.05848199	      0.05930006	      0.05731394	      0.05147135	      0.04760858	      0.04310786	      0.01525851	      0.01651186	      0.06550154	      0.04489616	      0.09252498	      0.04100924	     -0.01011624	     -0.01964049	     -0.02573853	     -0.00825244	     -0.02407808	     -0.08049441	     -0.15465619	     -0.17643029	      0.00000079	     -0.32847694	      0.00000060	     -0.00000086	    -17.06043693	    194.73339884	     25.79581010	    -15.12194669	     -0.29870981	     -8.12622786	     17.06043693	   -194.73339884	    -25.79581010	      5.61117255	     -0.15362649	      5.25083930	     17.49298979	     32.92704546	      0.87125746	      0.30572423	     -0.32626651	      6.82134472	    -17.49298979	    -32.92704546	     -0.87125746	     -0.56753775	      0.27024592	      0.55247307	    -16.60134678	   -461.17517095	     95.01499137	     -9.06258867	      2.51230243	     10.79334855	     16.60134678	    461.17517095	    -95.01499137	     46.75128417	     -0.74193066	      4.38462063	     21.30426857	   -325.56484153	    -63.83280006	      9.84880870	     -1.01416527	      8.47728470	    -21.30426857	    325.56484153	     63.83280006	    -33.73606669	     -0.15231359	    -10.50032074	    197.17398143	     37.29549710	    332.44693451	    471.15389375
